<?xml version="1.0" encoding="utf-8"?>
<svg version="1.1" id="レイヤー_1" xmlns="http://www.w3.org/2000/svg" xmlns:xlink="http://www.w3.org/1999/xlink" x="0px"
	 y="0px" viewBox="0 0 250 100" style="enable-background:new 0 0 250 100;" xml:space="preserve">
<g>
	<path fill="#000" d="M46.635,44.52c-0.859,2.076-1.933,3.938-3.15,5.585c-1.217,1.646-2.363,2.506-3.58,2.506c-0.787,0-1.646-0.358-2.506-1.074
		c-0.931-0.787-1.861-1.145-2.792-1.145h-3.051c0,0-1.872,0.303-2.088,0.231c-1.224-0.072-2.304,0-3.312,0.288
		c-0.648,0.072-1.296,0.288-2.088,0.576l-0.792,0.144c-0.648,0.36-1.152,0.504-1.368,0.576l-1.296,0.504l-0.648-0.319H17.45
		c-1.342,0-1.837-0.142-2.402-0.496l-0.989-0.779c-1.201-0.921-2.12-1.488-2.826-1.701c-0.424-0.071-0.918-0.284-1.413-0.638
		c-1.766-1.63-3.109-4.394-4.169-8.22c-1.06-3.898-1.554-7.654-1.554-11.41v-0.921l0.565,0.496c1.696,1.63,2.756,2.622,3.109,3.118
		l1.06,1.063c1.06,1.063,1.766,2.622,2.968,5.811l0.424,0.992l0.282,0.779c0.778,2.055,1.413,3.544,1.979,4.465
		c0.494,0.992,1.201,1.559,2.049,1.63c0.071-0.071,0.494-0.213,1.272-0.355l1.978-0.567c0.565-0.071,1.201-0.284,1.978-0.496
		l1.13-0.142l7.631-0.567c2.049-0.142,4.522-0.213,7.418-0.213c4.522,0.638,6.783-8.008,6.783-14.598
		c0-2.764-0.353-3.472-2.049-4.252h-4.098c-1.06,0-1.766,0-1.978-0.071c-1.342,0-2.261,0.071-2.826,0.142
		c-0.495,0.071-1.272,0.354-2.261,0.709l-0.989,0.496c-0.283,0.142-0.424,0.496-0.424,1.134v0.325l0.215,0.501l0.286,0.716
		l0.716,1.933l0.716,1.862c0.215,0.716,0.358,1.217,0.573,1.432c3.794-0.215,5.727,1.288,5.727,4.51
		c0,0.215-0.286,0.716-0.859,1.504c-0.572,0.787-0.931,1.217-1.002,1.217l-5.871-0.501c-0.501,0-1.646-1.146-1.718-2.005l-0.43-3.58
		c-0.358-4.08-0.859-6.228-2.005-7.374c-0.215,0-1.36-0.143-3.293-0.43l-2.005-0.215l-1.074-0.215
		c-0.645-0.072-1.146-0.286-1.647-0.573c-0.286-0.072-0.859-0.43-0.931-0.644c-0.072,0-0.072,0-0.072-0.072
		c0-0.215,0.573-0.716,0.787-0.716l1.575-0.644l1.575-0.716l1.718-0.645l1.003-0.286c0.787-0.143,1.933-0.429,3.436-0.859
		l9.307-2.22c1.146-0.215,2.005-0.501,2.506-0.716h2.863c2.649,0,4.725,0.429,6.086,1.36c1.933,1.217,2.935,3.294,2.935,6.157
		C51.217,32.063,49.57,37.719,46.635,44.52z M18.688,33.775c0-0.936-0.072-1.728-0.288-2.232c-0.216-0.432-0.288-0.792-0.288-1.152
		h0.792c0.36,0.216,1.368,0.504,3.096,0.936c0.576,0.288,1.296,0.504,2.088,0.576l1.008,1.224v2.592
		c0,4.537-1.512,7.489-4.393,7.489c-1.656,0-2.592-1.8-2.592-4.176c0-1.008,0.072-1.873,0.288-2.592
		C18.616,35.792,18.688,34.928,18.688,33.775z"/>
	<path d="M111.888,49.391c2.321,0.78,3.482,2.126,3.482,4.181c0,0.921-0.478,1.559-1.366,1.772c-0.956,0-2.321,0.071-4.028,0.212
		l-2.458,0.284l-1.57,0.142c-0.341,0-0.614,0-0.751,0.071l-2.048,0.425c-0.683,0.142-1.297,0.284-1.912,0.496
		c-1.434,0.496-2.731,0.85-4.028,1.205l-1.161,0.212h-0.956c-3.004,0-4.643-1.914-6.896-5.952c-0.341-0.496-0.478-0.921-0.478-1.276
		c0.205,0,0.819,0.142,1.844,0.355c0.614,0.212,1.365,0.283,2.389,0.283c1.365,0,2.663-0.354,3.823-0.992
		c1.57-0.921,2.321-2.055,2.321-3.331v-0.567c-1.57-0.354-3.004-0.921-4.164-1.559c-1.57-1.063-2.458-1.914-2.731-2.622
		c-0.137,0,0-0.141,0.478-0.354c0.137-0.071,0.41-0.212,0.888-0.354l1.229-0.284c0.341-0.071,0.887-0.213,1.775-0.284
		c1.707-0.354,2.662-0.638,2.868-0.709c0.614-0.212,0.956-0.496,0.956-0.779c-0.068-0.142-0.068-0.496-0.068-1.063
		c0-2.338-0.137-3.189-0.956-4.322c-0.205-0.213-0.751-0.355-1.638-0.355l-2.458,0.071c-0.478,0-0.751,0-0.819-0.071
		c-0.751-0.212-1.502-0.567-2.253-0.992L81.097,48.895v11.023l-0.371,1.018l-0.743-0.145l-0.817-0.218l-0.594-0.218
		c-0.743-0.364-1.486-1.164-2.229-2.546l-0.743-1.6c-0.075-0.072-0.075-0.291-0.075-0.727c0-0.581,0-1.018,0.075-1.382
		c0.074-0.363,0.074-0.872,0.074-1.527c0-0.655-0.074-1.091-0.223-1.309c-0.223,0.509-0.446,0.873-0.668,0.945
		c-0.149,0.218-0.52,0.727-1.04,1.673c-0.594,1.236-1.04,1.964-1.411,2.327l-0.52,0.363c-1.04,1.164-1.634,1.746-1.783,1.818h-0.372
		c-0.52-0.363-1.188-1.018-1.56-1.527V52.5l0.446-0.873l2.006-3.491l0.594-1.091c0.668-1.309,1.337-2.691,1.931-4.146l0.891-1.963
		l1.189-2.546h-1.192c0,0-1.872,0.782-2.665,1.142c-1.008,0.36-1.872,0.576-2.664,0.576c-1.728,0-3.816-0.432-5.473-1.296
		c-1.944-0.864-3.24-2.304-3.24-3.744c5.257,0,10.081-1.656,16.994-5.4l0.792-0.72c0.216-1.8,0.36-3.312,0.432-4.537
		s0.072-3.168-0.042-5.833v-4.824c-0.678-1.08-2.406-2.736-2.694-2.736c0.792-0.36,3.312-1.08,4.969-1.08
		c1.728,0,3.528,0.576,4.68,1.656c1.512,1.224,2.304,2.664,2.304,4.176c0,1.224-0.288,2.016-1.512,4.608
		c-1.152,2.376-1.584,3.457-1.747,4.969v0.648c2.106,0.36,3.835,1.872,3.835,3.312l-0.432,0.72l-0.432,0.576l-0.288,0.432
		c-2.664,2.88-3.744,7.354-3.744,7.354h0.1l7.169-7.452c0.378-0.355,0.68-0.497,1.057-0.497c0.226,0,0.83-0.142,1.736-0.355
		c0.528-0.213,1.056-0.284,1.509-0.284l1.51-0.355c1.433-0.284,2.792-0.639,4.075-1.065c1.132-0.355,2.49-0.71,4.151-1.136
		c1.207-0.284,1.811-0.426,1.886-0.497l1.812,0.142c2.716,0.071,3.849,0.355,5.056,1.774v0.142c0,0.497-0.453,0.993-1.434,1.632
		c-0.755,0.497-2.038,1.278-3.849,2.2l-1.207,0.639c-0.604,0.284-1.51,0.355-1.51,2.555v2.271c1.208-0.142,1.963-0.213,2.34-0.213
		c0.981,0,2.188,0.283,3.471,0.851c1.283,0.568,1.963,1.348,1.963,2.342c0,0.851,0,1.207-0.529,1.49l-2.339,1.916l-1.208,0.71
		c-0.679,0.355-1.056,0.568-1.283,0.781l-2.49,1.207c-0.076,0.071-0.151,0.142-0.076,0.213c0,0.071-0.075,0.213-0.226,0.355
		l-0.604,1.632c1.661-0.141,3.472-0.213,5.434-0.213c1.736,0,2.792,0.071,3.245,0.213H111.888z M93.051,17.638l-0.954-0.587v-0.147
		l1.541-0.44c0.074-0.073,0.294-0.073,0.587-0.073h4.404c0.881,0,1.468,0,1.835-0.074c1.835-0.073,3.303,0.074,4.404,0.44
		c0.514,0.22,1.027,0.587,1.541,1.248c0.22,0.66,0.44,1.174,0.734,1.615c0.22,0.367,0.367,0.881,0.367,1.395
		c0,0.587-0.367,1.175-1.101,1.688c-0.66,0.66-1.395,1.027-2.202,1.101l-0.954,0.073l-3.67,0.44
		c-0.367,0.074-0.88,0.074-1.615,0.074h-0.294l0.367-0.661c0.22-0.367,0.294-0.807,0.294-1.395c0-0.88-0.073-0.954-0.734-1.615
		c-0.147-0.073-1.101-0.66-2.863-1.908L93.051,17.638z"/>
	<path d="M147.308,17.74c-0.352,2.36-0.563,3.776-0.563,4.18c0,0.674,0.493,1.349,1.409,1.955c0.704,0.405,1.337,0.876,1.971,1.416
		c0.141-0.607,0.282-1.011,0.493-1.281l1.056-2.292l0.423-0.876v-1.753c0-0.944-0.071-1.685-0.211-2.292
		c-0.352-0.944-0.986-1.416-1.902-1.416l6.338-1.011c1.409,0,3.098,2.224,3.098,3.91c0,0.809,0,0.944-0.493,1.685
		c-0.211,0.337-0.352,0.809-0.423,1.348c-0.07,0.472-0.21,0.876-0.493,1.349c0.141,1.078,0.352,2.292,0.634,3.64
		c0.212,1.416,0.351,2.09,0.563,2.09h1.404c0.681-0.074,2.044-0.52,4.166-1.263l2.423-0.743l1.894-0.668v-1.411
		c0-2.6-1.894-4.903-5-7.577v-0.446c0,0.075,0.076,0.075,0.303,0c0.228-0.149,0.909-0.371,2.045-0.668l0.985-0.223h1.863
		c0,0,4.753,0.884,5.616,3.692l0.072,0.576c0,1.008,0.072,1.8,0.288,2.448c0.072,0.432,0.144,0.648,0.216,0.72
		c0.217,0.36,0.504,0.648,0.937,0.936c0.72,0.36,1.296,0.72,1.728,1.152c0.145,0.216,0.217,0.504,0.217,1.008
		c0,1.152-0.432,1.44-2.377,1.8c-2.088,0.36-2.88,0.936-2.88,2.736c0,0.936,0.36,1.296,2.304,1.872
		c2.593,0.792,2.809,1.08,1.684,2.736v1.08l-4.491,4.248c-0.072,0.072-0.144,0.216-0.144,0.36c0,0.216,0.071,0.432,0.287,0.648
		c0.217,0.216,0.937,0.504,2.16,0.72c1.369,0.216,2.16,0.504,2.377,0.864c0.216,0.648,0.359,1.008,0.811,1.224v1.152l-1.243,1.08
		c-0.36,0.36-1.08,0.864-2.231,1.584c-1.152,0.648-1.801,1.08-1.945,1.296c4.896,0.576,8.137,2.304,8.137,5.112
		c0,0.36,0,0.648-0.359,0.864c-1.656,0.36-2.52,0.504-2.52,0.504l-3.889,0.72c-2.881,0.648-6.48,0.864-6.48,0.864h-4.609
		c0,0-0.863,0.216-1.08,0.288c-0.576,0.072-1.008,0.144-1.367,0.144c-0.504,0-0.865-0.072-1.08-0.288
		c-0.217-0.144-0.36,1.152-0.433,3.96c-0.288,3.528-0.433,4.464-1.8,4.464c-2.088,0-2.881-1.368-3.1-4.32v-1.224l1.516-16.706
		c0.072-0.504,0.072-1.728,0.072-3.816c0-2.304-0.145-6.625-0.433-12.961l-0.072-2.016c-1.44,1.8-2.664,3.168-4.32,4.475h-0.144
		c-0.217,0.061-0.432-0.155-0.576-0.587c-0.145-0.36-0.504-0.576-1.152-0.576c-0.792,0-1.801,1.08-2.448,2.592
		c-0.647,1.152-2.442,3.457-2.442,3.457v1.224c0,0,2.515-1.08,3.019-1.224c0.647-0.216,1.08-0.432,1.224-0.576l0.504-0.31h0.145
		c0.288-0.194,0.432-0.123,0.504,0.094c-0.792,1.8-2.736,4.68-4.395,6.984v1.656c-0.357,1.728-0.214,3.96,0.002,6.769
		c0.217,1.872,0.289,4.248,0.289,7.057c0,2.088-1.729,3.44-1.729,3.44h0.024l-1.006-0.364l-0.646-0.292l-8.906-7.289l-1.005,0.073
		c-2.657,0-4.023-1.239-4.023-3.717v-0.583l11.636-7.872l0.861-0.729c0.359-0.218,0.503-0.437,0.503-0.802v-0.51l-0.143-0.875
		l-0.143-2.041h-1.812c-0.282,0-0.704,0.068-1.198,0.27c-0.493,0.202-0.844,0.27-1.056,0.27c-2.464,0-5.281-2.022-7.604-4.517
		c0.351-0.203,1.266-0.472,2.605-0.809c3.45-0.944,6.055-1.955,7.957-3.101c1.337-0.809,2.042-2.157,2.253-4.045
		c0.071-1.078,0.14-1.618,0.14-1.551c0.071-0.202,0.071-0.472,0.071-0.809c-0.071-0.135-0.071-0.405-0.071-0.809v-1.348
		c0-0.607-0.07-1.146-0.281-1.753c-0.212-0.607-0.283-1.146-0.283-1.685c-0.14-0.539-0.563-1.416-1.337-2.562
		c-0.212-0.337-0.423-0.607-0.634-0.809l-0.351-0.269c1.056-0.068,1.83-0.203,2.393-0.337c1.409-0.067,2.254-0.135,2.465-0.135
		c1.479,0,2.746,0.539,3.662,1.551c0.14,0.203,0.211,0.539,0.211,1.146C147.941,13.695,147.73,15.245,147.308,17.74z
		 M134.329,48.966c1.728,1.729,3.6,2.232,6.768,2.232v-7.777L134.329,48.966z M158.902,43.567c-0.068,1.368-0.068,3.168,0,5.328
		l0.136,5.473l1.7-0.792c3.805-1.656,5.64-2.808,7.272-5.185h-0.295l-2.077-0.072c-0.385,0-0.616,0-0.693,0.072
		c-0.231,0.216-0.539,0.288-1,0.288c-0.693,0-1.001-0.576-0.848-1.728v-0.792c0-1.08,0.616-1.656,2.541-3.312
		c1.848-1.44,2.616-2.16,2.54-3.312c-3.001-0.504-4.31-1.44-6.08-3.457v-0.144c1.835-0.36,3.874-0.936,5.981-1.8
		c0.612-0.288,0.952-1.008,1.019-2.088v-2.232l-9.378,1.44l-0.136,2.16l-0.068,1.584l-0.204,3.096L158.902,43.567z"/>
	<path d="M214.597,38.587c0.356,1.239,0.856,3.653,0.856,5.674c0,1.109-0.142,2.022-0.356,2.739c-1.786,0.913-3.072,1.5-3.929,1.826
		c-1.428,0.717-2.571,1.239-3.428,1.435c-0.571,0.13-1.214,0.196-2,0.196c-2.643,0-4.642-3-4.642-5.87
		c0.072-2.283,1.071-3.587,3.428-5.479l4.357-3.13l5-3.326c-0.5-0.065-1.143-0.261-1.999-0.587
		c-1.786-0.456-3.358-0.717-4.571-0.717s-2.786,1.109-5.286,3.457l-2.785,2.805c-1.285,1.239-2,1.892-2.214,2.022l-2.572,1.761
		l-1.571,1.044l-1.071,0.783l-1.356,0.652c-0.357,0.196-0.858,0.326-1.358,0.326c-1.356,0-1.999-1.566-1.999-3.587v0.273
		c-0.073-0.359-0.073-0.646,0.146-0.718l0.435,0.431c0.508,0.503,1.162,1.006,1.888,1.437c0.363,0.215,0.726,0.359,1.089,0.359
		h0.363c0.87-0.575,1.815-1.365,2.904-2.442c1.089-1.077,1.815-1.796,2.033-2.226c8.131-9.122,13.576-16.879,17.424-25.497
		c0.581-1.221,0.654-1.508,0.654-2.657c0-0.79-0.219-1.58-0.581-2.442c-0.363-0.646-0.581-1.293-0.581-1.796
		c1.451,0,3.629,0.646,5.299,1.58c1.96,1.221,2.905,2.729,2.905,4.597c0,0.934-0.291,1.796-0.871,2.442
		c-0.29,0.216-0.654,0.647-1.162,1.293l-0.944,1.221v0.431c0,0.79,0.146,0.862,0.8,1.221c0.218,0.072,0.581,0.359,1.162,0.862
		c0.58,0.575,0.943,0.862,1.161,0.862l2.468,1.436c1.452,0.934,2.686,1.652,3.775,2.227l4.429,2.657
		c1.96,1.221,4.283,2.586,6.897,4.094l3.775,2.083l1.379,1.221c1.379,1.221,1.96,2.298,1.96,3.735c0,1.221-0.218,1.293-1.96,1.293
		c-2.541,0-5.445-1.077-7.55-2.801l-1.816-1.508l-3.121-2.586l-7.115-5.602l-3.921-3.16c-1.379-1.077-2.396-1.867-3.049-2.442
		c-0.218-0.215-0.653-0.287-1.379-0.287c-0.654,0-0.799,0.072-1.451,0.718c-0.508,0.503-1.525,1.867-2.978,4.022l-1.815,2.298
		l-1.597,2.155h1.017l9.928-3h0.5c0.857,0,2.214,0.652,3.357,1.5c1.429,1.109,2.144,1.957,2.144,2.609v0.13l-0.715,0.326
		c-0.5,0.261-0.786,0.457-0.857,0.522c-0.642,0.326-1.356,0.652-2.143,0.913l-3.143,1.37l-3.214,1.369l-1.857,0.848
		c-0.357,0.261-0.857,0.521-1.429,0.717L214.597,38.587z M206.442,46.373c0.289,0.504,0.576,0.72,0.865,0.72
		c0.215,0,0.504-0.144,1.008-0.36c0.504-0.216,0.791-0.36,0.936-0.36c1.08,0.072,1.656-0.864,1.656-2.304
		c0-0.432,0-0.72-0.072-0.864c-1.152,0-3.384,0.648-4.32,1.152L206.442,46.373z M218.026,44.297l-0.143-1.428l-0.143-1.214
		c-0.072-0.071-0.072-0.214-0.072-0.429c0-0.5,0-0.857,0.072-1.143c0.072-0.357,0.072-0.643,0-0.857l-0.072-0.143
		c0-0.214,0.358-0.572,1.001-1c1.643-1.143,2.857-1.214,4.356-1.572c1.286-0.214,2.358-0.357,3.287-0.357
		c3.856,0,5.785,1.428,5.785,4.214v1.5c-0.072,0.429-0.428,1.214-1,2.429c-0.572,1.143-1.001,1.858-1.215,2.072
		c-1,1.214-2.143,2.214-3.5,3.071l-1.643,1.214c-0.856,0.643-1.571,1.286-2.071,1.929c0.072,0.5,0.072,1.5,0.072,3.143
		c0,5.286-0.787,9.714-2.429,13.214l-0.643,1.286c-0.642,1.214-1.214,2.214-1.571,3l-0.214-24.214L218.026,44.297z M220.628,41.111
		l0.504,4.896l1.656-0.432c0.937,0,1.729-0.648,2.521-1.944l0.648-0.936c0.504-0.504,0.647-0.792,0.575-1.296
		c-0.288-1.224-0.792-1.512-1.728-1.512c-0.216,0.072-0.504,0.072-0.792,0.072l-1.801,0.432h-0.144
		c-0.216,0-0.433,0.072-0.792,0.288L220.628,41.111z"/>
</g>
<g>
	<path d="M88.097,93.391V70.963l15,16.022V72.391h3V94.67l-15-15.981v14.703H88.097z"/>
	<path d="M123.097,75.391h-9v5h8v3h-8v7h9v3h-12v-21h12V75.391z"/>
	<path d="M131.521,82.415l-5.78-10.024h3.604l4.012,7.113l4.216-7.113h3.631l-6.052,10.024l6.352,10.976h-3.55l-4.652-8.038
		l-4.788,8.038h-3.591L131.521,82.415z"/>
	<path d="M150.097,75.391v18h-3v-18h-5v-3h13v3H150.097z"/>
</g>
<rect x="-356.903" y="425.391" style="fill:none;" width="4" height="0"/>
<rect x="161.097" y="272.391" style="fill:none;" width="2" height="3"/>
</svg>
